Johnny Knoxville and company return for the third installment of their TV show spin-off, where dangerous stunts and explicit public displays rule. 


Director: Jeff Tremaine
Writer: Preston Lacy
Stars:Johnny Knoxville, Steve-O and Bam Margera  
 

media info:

General
Complete name                    : D:\upload.1080p.AVC.DTS.1080p.AVC.DTS 5.1-ACB-Team.mkv
Format                           : Matroska
File size                        : 9.75 GiB
Duration                         : 1h 39mn
Overall bit rate                 : 14.0 Mbps
Movie name                       : movie
Encoded date                     : UTC 2011-03-12 09:53:52
Writing application              : mkvmerge v3.2.0 ('Beginnings') built on Feb 12 2010 16:46:17
Writing library                  : libebml v0.7.9 + libmatroska v0.8.1

Video
ID                               : 1
Format                           : AVC
Format/Info                      : Advanced Video Codec
Format profile                   : High@L4.1
Format settings, CABAC           : Yes
Format settings, ReFrames        : 3 frames
Format settings, GOP             : M=4, N=16
Muxing mode                      : Container profile=Unknown@0.0
Codec ID                         : V_MPEG4/ISO/AVC
Duration                         : 1h 39mn
Bit rate mode                    : Variable
Bit rate                         : 12.6 Mbps
Maximum bit rate                 : 35.0 Mbps
Width                            : 1 920 pixels
Height                           : 1 080 pixels
Display aspect ratio             : 16:9
Frame rate                       : 23.976 fps
Color space                      : YUV
Chroma subsampling               : 4:2:0
Bit depth                        : 8 bits
Scan type                        : Progressive
Bits/(Pixel*Frame)               : 0.253
Stream size                      : 8.51 GiB (87%)
Writing library                  : x264 core 114 r1900 60ef1f8
Encoding settings                : cabac=1 / ref=1 / deblock=1:0:0 / analyse=0x3:0x3 / me=dia / subme=1 / psy=1 / psy_rd=0.00:0.00 / mixed_ref=0 / me_range=16 / chroma_me=1 / trellis=0 / 8x8dct=1 / cqm=0 / deadzone=21,11 / fast_pskip=1 / chroma_qp_offset=0 / threads=3 / sliced_threads=0 / slices=4 / nr=0 / decimate=1 / interlaced=0 / constrained_intra=0 / bframes=3 / b_pyramid=1 / b_adapt=1 / b_bias=0 / direct=1 / weightb=1 / open_gop=0 / weightp=1 / keyint=24 / keyint_min=1 / scenecut=40 / intra_refresh=0 / rc_lookahead=0 / rc=abr / mbtree=0 / bitrate=12571 / ratetol=1.0 / qcomp=0.60 / qpmin=0 / qpmax=69 / qpstep=4 / vbv_maxrate=35000 / vbv_bufsize=30000 / nal_hrd=vbr / ip_ratio=1.10 / pb_ratio=1.10 / aq=1:1.00

Audio
ID                               : 2
Format                           : DTS
Format/Info                      : Digital Theater Systems
Codec ID                         : A_DTS
Duration                         : 1h 39mn
Bit rate mode                    : Constant
Bit rate                         : 1 510 Kbps
Channel(s)                       : 6 channels
Channel positions                : Front: L C R, Side: L R, LFE
Sampling rate                    : 48.0 KHz
Bit depth                        : 24 bits
Stream size                      : 1.05 GiB (11%)
Language                         : English

Text #1
ID                               : 3
Format                           : VobSub
Muxing mode                      : zlib
Codec ID                         : S_VOBSUB
Codec ID/Info                    : The same subtitle format used on DVDs
Language                         : English

Text #2
ID                               : 4
Format                           : VobSub
Muxing mode                      : zlib
Codec ID                         : S_VOBSUB
Codec ID/Info                    : The same subtitle format used on DVDs
Language                         : Spanish

Text #3
ID                               : 5
Format                           : VobSub
Muxing mode                      : zlib
Codec ID                         : S_VOBSUB
Codec ID/Info                    : The same subtitle format used on DVDs
Language                         : Portuguese

Text #4
ID                               : 6
Format                           : UTF-8
Codec ID                         : S_TEXT/UTF8
Codec ID/Info                    : UTF-8 Plain Text
Language                         : Dutch

Menu
00:00:00.000                     : en:00:00:00.000
00:05:30.163                     : en:00:05:30.163
00:08:14.702                     : en:00:08:14.702
00:09:46.168                     : en:00:09:46.168
00:10:52.234                     : en:00:10:52.234
00:13:14.043                     : en:00:13:14.043
00:13:48.327                     : en:00:13:48.327
00:16:24.566                     : en:00:16:24.566
00:19:04.810                     : en:00:19:04.810
00:19:51.815                     : en:00:19:51.815
00:20:55.420                     : en:00:20:55.420
00:22:02.863                     : en:00:22:02.863
00:24:49.821                     : en:00:24:49.821
00:25:30.820                     : en:00:25:30.820
00:27:15.967                     : en:00:27:15.967
00:28:18.780                     : en:00:28:18.780
00:35:39.720                     : en:00:35:39.720
00:36:20.845                     : en:00:36:20.845
00:38:07.702                     : en:00:38:07.702
00:40:03.818                     : en:00:40:03.818
00:41:21.228                     : en:00:41:21.228
00:41:32.489                     : en:00:41:32.489
00:44:41.804                     : en:00:44:41.804
00:46:42.424                     : en:00:46:42.424
00:48:12.431                     : en:00:48:12.431
00:48:37.331                     : en:00:48:37.331
00:50:59.556                     : en:00:50:59.556
00:53:28.622                     : en:00:53:28.622
00:54:25.387                     : en:00:54:25.387
00:55:12.934                     : en:00:55:12.934
00:55:44.090                     : en:00:55:44.090
00:58:07.942                     : en:00:58:07.942
01:00:10.565                     : en:01:00:10.565
01:01:09.123                     : en:01:01:09.123
01:03:15.917                     : en:01:03:15.917
01:03:46.447                     : en:01:03:46.447
01:05:43.564                     : en:01:05:43.564
01:06:06.462                     : en:01:06:06.462
01:08:02.703                     : en:01:08:02.703
01:08:40.574                     : en:01:08:40.574
01:11:44.675                     : en:01:11:44.675
01:13:52.636                     : en:01:13:52.636
01:17:04.911                     : en:01:17:04.911
01:17:21.511                     : en:01:17:21.511
01:19:00.986                     : en:01:19:00.986
01:22:37.327                     : en:01:22:37.327
01:23:19.202                     : en:01:23:19.202
01:27:11.392                     : en:01:27:11.392
01:30:29.423                     : en:01:30:29.423

